<?xml version="1.0" encoding="UTF-8" standalone="no"?>
<svg
   id="Layer_1"
   data-name="Layer 1"
   viewBox="0 0 841.89 595.28"
   version="1.1"
   xmlns="http://www.w3.org/2000/svg"
   xmlns:svg="http://www.w3.org/2000/svg">
  <defs
     id="defs9">
    <style
       id="style1">
      .cls-1 {
        fill: url(#linear-gradient);
        stroke-width: 0px;
       }

      .cls-2 {
        fill: #fff;
        stroke: #000;
        stroke-width: 4px;
       }
    </style>
    <linearGradient
       id="linear-gradient"
       x1="44.08"
       y1="305.27"
       x2="811.73"
       y2="305.27"
       gradientUnits="userSpaceOnUse">
      <stop
         offset="0"
         stop-color="#ffb401"
         id="stop1" />
      <stop
         offset="0"
         stop-color="#ffb201"
         id="stop2" />
      <stop
         offset=".05"
         stop-color="#ff9701"
         id="stop3" />
      <stop
         offset=".11"
         stop-color="#ff8401"
         id="stop4" />
      <stop
         offset=".16"
         stop-color="#ff7901"
         id="stop5" />
      <stop
         offset=".22"
         stop-color="#ff7501"
         id="stop6" />
      <stop
         offset=".54"
         stop-color="#ff03cb"
         id="stop7" />
      <stop
         offset=".77"
         stop-color="#b503ff"
         id="stop8" />
      <stop
         offset=".91"
         stop-color="#3157e9"
         id="stop9" />
    </linearGradient>
  </defs>
  <g
     id="g23">
    <path
       class="cls-1"
       d="m66.73,375.03h-22.65v-72.54h22.66v72.54h-.01Zm37.41-72.54h-22.65v107.23h22.66v-107.23h0Zm37.41,0h-22.65v162.9h22.66v-162.9h0Zm37.41,0h-22.66v84.77h22.66v-84.77Zm94.61,0h-22.66v46.45h22.66v-46.45Zm37.4,0h-22.66v133.17h22.66v-133.17Zm37.41,0h-22.66v66.86h22.66v-66.86Zm82.38,0h-22.66v92.91h22.66v-92.91Zm37.41,0h-22.66v122.17h22.66v-122.17Zm37.41,0h-22.66v151.52h22.66v-151.52Zm93.77-103.03h-22.66v103.03h22.66v-103.03Zm37.41,63.2h-22.66v39.83h22.66v-39.83h0Zm62.74-63.2h-22.66v103.03h22.66v-103.03Zm37.41-54.31h-22.66v157.33h22.66v-157.33Zm37.41,90.36h-22.66v66.98h22.66v-66.98Zm37.41,27.15h-22.66v39.83h22.66v-39.83Z"
       id="path9" />
    <g
       id="g16">
      <g
         id="g18">
        <g
           id="g11">
          <path
             class="cls-2"
             d="m 109.03,282.82 c -21.23,0 -40.68,-7.53 -54.77,-21.19 -14.11,-13.68 -21.89,-32.56 -21.89,-53.16 0,-20.6 7.77,-39.49 21.89,-53.17 14.09,-13.66 33.54,-21.18 54.77,-21.18 43.59,0 76.46,31.96 76.46,74.35 0,42.39 -32.87,74.35 -76.46,74.35 z m 0,-124.14 c -29.41,0 -50.75,20.94 -50.75,49.79 0,28.85 21.34,49.79 50.75,49.79 29.18,0 50.36,-20.95 50.36,-49.79 0,-28.84 -21.18,-49.79 -50.36,-49.79 z"
             id="path11"
             style="stroke-width:5;stroke-dasharray:none" />
        </g>
        <g
           id="g13"
           style="stroke-width:5;stroke-dasharray:none">
          <path
             id="path12"
             class="cls-2"
             d="m310.99,225.18c0,30.75-21.52,51.5-50.35,51.5-16.14,0-29.98-6.92-38.43-19.99v56.31h-13.64v-138.36h13.07v19.99c8.26-13.45,22.29-20.76,39.01-20.76,28.82,0,50.34,20.76,50.34,51.31Zm-13.64,0c0-23.44-16.33-39.39-37.66-39.39s-37.66,15.95-37.66,39.39,16.14,39.39,37.66,39.39,37.66-15.75,37.66-39.39Z"
             style="stroke-width:5;stroke-dasharray:none" />
          <path
             class="cls-2"
             d="M 228.15,318.94 H 202.63 V 168.7 h 24.95 v 10.31 c 8.93,-7.16 20.38,-11.08 33.07,-11.08 32.61,0 56.28,24.08 56.28,57.25 0,33.17 -23.67,57.44 -56.29,57.44 -12.55,0 -23.68,-3.7 -32.49,-10.64 z m 31.54,-127.21 c -18.68,0 -31.72,13.75 -31.72,33.45 0,19.7 13.04,33.45 31.72,33.45 18.68,0 31.72,-13.75 31.72,-33.45 0,-19.7 -13.04,-33.45 -31.72,-33.45 z"
             id="path13"
             style="stroke-width:5;stroke-dasharray:none" />
        </g>
        <g
           id="g15"
           style="stroke-width:5;stroke-dasharray:none"
           transform="translate(4.4926795)">
          <path
             id="path14"
             class="cls-2"
             d="m 413.03,251.32 7.69,8.84 c -9.03,10.76 -22.87,16.52 -38.82,16.52 -31.51,0 -53.23,-21.52 -53.23,-51.5 0,-29.98 20.95,-51.31 49.97,-51.31 27.09,0 47.46,19.79 48.42,48.23 l -83.01,16.14 c 5,16.34 19.22,26.33 38.05,26.33 12.48,0 23.44,-4.41 30.93,-13.25 z m -71.1,-27.1 c 0,1.54 0,2.88 0.19,4.23 l 71.29,-13.84 c -2.88,-16.53 -16.14,-29.02 -34.78,-29.02 -21.52,0.01 -36.7,15.76 -36.7,38.63 z"
             style="stroke-width:5;stroke-dasharray:none" />
          <path
             class="cls-2"
             d="m 381.9,282.62 c -16.74,0 -31.86,-5.75 -42.58,-16.19 -10.7,-10.43 -16.59,-25.07 -16.59,-41.25 0,-33.17 23.51,-57.25 55.91,-57.25 30.44,0 53.3,22.7 54.36,53.97 l 0.17,5.06 -80.83,15.72 c 5.58,10.1 16.29,15.95 29.76,15.95 11.09,0 20.22,-3.86 26.4,-11.15 l 4.47,-5.28 15.56,17.89 -3.26,3.89 C 415.18,276 399.78,282.62 381.9,282.62 Z m -3.27,-91.09 c -17.45,0 -29.47,11.83 -30.66,29.73 l 58.09,-11.28 c -4.18,-11.38 -14.43,-18.46 -27.42,-18.46 z"
             id="path15"
             style="stroke-width:5;stroke-dasharray:none" />
        </g>
        <g
           id="g17"
           style="stroke-width:5;stroke-dasharray:none">
          <path
             id="path16"
             class="cls-2"
             d="m547.93,217.11v79.82h-13.64v-78.47c0-21.33-11.15-32.28-30.36-32.28-21.72,0-35.36,13.45-35.36,36.51v53.04h-13.64v-101.09h13.07v18.64c7.3-12.3,20.95-19.41,38.43-19.41,24.59,0,41.5,14.22,41.5,43.24Z"
             style="stroke-width:5;stroke-dasharray:none" />
          <path
             class="cls-2"
             d="m 553.87,302.49 h -25.52 v -84.03 c 0,-17.72 -7.99,-26.34 -24.42,-26.34 -18.7,0 -29.42,11.14 -29.42,30.57 v 58.98 H 448.99 V 168.7 h 24.95 v 9.23 c 8.58,-6.47 19.8,-10 32.49,-10 29.71,0 47.44,18.39 47.44,49.18 z"
             id="path17"
             style="stroke-width:5;stroke-dasharray:none" />
        </g>
      </g>
      <g
         id="g22"
         style="stroke-width:5;stroke-dasharray:none">
        <g
           id="g19"
           style="stroke-width:5;stroke-dasharray:none">
          <path
             id="path18"
             class="cls-2"
             d="m674.02,328.42v134.51h-13.64v-107.61l-52.84,90.51h-6.73l-52.84-89.94v107.04h-13.64v-134.51h15.79l54.35,99.74,55.19-99.74h14.36Z"
             style="stroke-width:5;stroke-dasharray:none" />
          <path
             class="cls-2"
             d="m 679.96,468.87 h -25.52 v -91.59 l -43.49,74.49 h -13.54 l -43.5,-74.04 v 91.14 H 528.39 V 322.48 h 25.25 l 50.87,93.34 51.65,-93.34 h 23.8 z"
             id="path19"
             style="stroke-width:5;stroke-dasharray:none" />
        </g>
        <g
           id="g21"
           style="stroke-width:5;stroke-dasharray:none">
          <path
             id="path20"
             class="cls-2"
             d="m704.96,446.6l5.57-10.95c9.61,9.42,26.71,16.33,44.39,16.33,25.17,0,36.12-10.57,36.12-23.83,0-36.9-82.82-14.22-82.82-63.99,0-19.79,15.37-36.9,49.58-36.9,15.18,0,30.94,4.42,41.7,11.92l-4.81,11.34c-11.53-7.5-24.98-11.14-36.9-11.14-24.6,0-35.55,10.95-35.55,24.41,0,36.9,82.82,14.6,82.82,63.6,0,19.79-15.76,36.7-50.15,36.7-20.17,0-39.96-7.12-49.95-17.49Z"
             style="stroke-width:5;stroke-dasharray:none" />
          <path
             class="cls-2"
             d="m 754.91,470.03 c -21.64,0 -42.93,-7.58 -54.23,-19.31 l -2.93,-3.04 11.16,-21.94 5.78,5.67 c 9.07,8.89 24.86,14.63 40.23,14.63 19.18,0 30.18,-6.52 30.18,-17.89 0,-11.37 -10.33,-14.92 -32.25,-20.26 -22.53,-5.49 -50.57,-12.32 -50.57,-43.73 0,-12.07 5.01,-22.88 14.1,-30.44 9.76,-8.11 24.08,-12.4 41.42,-12.4 17.34,0 33.43,4.85 45.1,12.99 l 3.95,2.76 -9.46,22.3 -5.94,-3.86 c -9.94,-6.47 -22.21,-10.18 -33.66,-10.18 -18.82,0 -29.61,6.73 -29.61,18.47 0,11.74 12.35,15.49 32.49,20.41 22.42,5.47 50.33,12.29 50.33,43.19 0,12.05 -5.1,22.84 -14.37,30.38 -9.86,8.02 -24.29,12.26 -41.72,12.26 z"
             id="path21"
             style="stroke-width:5;stroke-dasharray:none" />
        </g>
      </g>
    </g>
  </g>
</svg>
