<?xml version="1.0" encoding="UTF-8" standalone="no"?>
<svg xmlns:dc="http://purl.org/dc/elements/1.1/" xmlns:cc="http://creativecommons.org/ns#" xmlns:rdf="http://www.w3.org/1999/02/22-rdf-syntax-ns#" xmlns:svg="http://www.w3.org/2000/svg" xmlns="http://www.w3.org/2000/svg" xmlns:sodipodi="http://sodipodi.sourceforge.net/DTD/sodipodi-0.dtd" xmlns:inkscape="http://www.inkscape.org/namespaces/inkscape" version="1.0" width="1208px" height="878px" viewBox="0 0 12080 8780" preserveAspectRatio="xMidYMid meet" id="svg618" sodipodi:docname="OpenMS.svg" inkscape:version="0.92.2 (5c3e80d, 2017-08-06)">
  <metadata id="metadata624">
    <rdf:RDF>
      <cc:Work rdf:about="">
        <dc:format>image/svg+xml</dc:format>
        <dc:type rdf:resource="http://purl.org/dc/dcmitype/StillImage"/>
      </cc:Work>
    </rdf:RDF>
  </metadata>
  <defs id="defs622">
    <filter inkscape:collect="always" style="color-interpolation-filters:sRGB" id="filter2241" x="-0.074533422" width="1.1490668" y="-0.050209541" height="1.1004191">
      <feGaussianBlur inkscape:collect="always" stdDeviation="44.323533" id="feGaussianBlur2243"/>
    </filter>
    <filter inkscape:collect="always" style="color-interpolation-filters:sRGB" id="filter3209" x="-0.064834149" width="1.1296683" y="-0.055836716" height="1.1116734">
      <feGaussianBlur inkscape:collect="always" stdDeviation="54.355833" id="feGaussianBlur3211"/>
    </filter>
    <filter inkscape:collect="always" style="color-interpolation-filters:sRGB" id="filter3325" x="-0.066341838" width="1.1326837" y="-0.054764845" height="1.1095297">
      <feGaussianBlur inkscape:collect="always" stdDeviation="41.789423" id="feGaussianBlur3327"/>
    </filter>
    <filter inkscape:collect="always" style="color-interpolation-filters:sRGB" id="filter3445" x="-0.065836419" width="1.1316728" y="-0.055114117" height="1.1102282">
      <feGaussianBlur inkscape:collect="always" stdDeviation="41.783427" id="feGaussianBlur3447"/>
    </filter>
    <filter inkscape:collect="always" style="color-interpolation-filters:sRGB" id="filter3557" x="-0.061991528" width="1.1239831" y="-0.058132448" height="1.1162649">
      <feGaussianBlur inkscape:collect="always" stdDeviation="44.1932" id="feGaussianBlur3559"/>
    </filter>
    <filter inkscape:collect="always" style="color-interpolation-filters:sRGB" id="filter3657" x="-0.064770265" width="1.1295405" y="-0.055884186" height="1.1117684">
      <feGaussianBlur inkscape:collect="always" stdDeviation="47.72425" id="feGaussianBlur3659"/>
    </filter>
  </defs>
  <sodipodi:namedview pagecolor="#ffffff" bordercolor="#666666" borderopacity="1" objecttolerance="10" gridtolerance="10" guidetolerance="10" inkscape:pageopacity="0" inkscape:pageshadow="2" inkscape:window-width="1920" inkscape:window-height="1137" id="namedview620" showgrid="false" inkscape:zoom="0.90509668" inkscape:cx="546.77327" inkscape:cy="469.96545" inkscape:window-x="-8" inkscape:window-y="379" inkscape:window-maximized="1" inkscape:current-layer="layer10" inkscape:snap-nodes="false"/>
  <g style="display:inline;opacity:1" inkscape:label="shadow" id="g1603" inkscape:groupmode="layer">
    <path sodipodi:nodetypes="ccccccccccccccccccsc" id="path1591" d="m 1568.0056,6399.1091 c -118.0763,-18.4784 -286.9253,-80.8431 -373.121,-138.5883 -114.5339,-76.2235 -249.14083,-226.3608 -309.35972,-344.1609 -41.32667,-81.9981 -98.00327,-251.7687 -116.89547,-346.4707 -22.43449,-120.1099 -20.07295,-552.0434 4.72305,-670.9983 22.43448,-110.8707 63.76117,-227.5158 120.43776,-336.0766 175.93348,-341.8511 543.15068,-525.4647 980.03288,-482.7333 497.1008,48.5059 807.6414,382.2568 880.8487,935.455 14.1691,102.7863 14.1691,358.0198 0,456.1865 -67.3035,485.059 -305.8175,791.1081 -702.5537,900.8239 -75.5688,20.7882 -130.5415,35.1124 -272.233,37.4223 -96.8225,2.3097 -191.8066,-7.3948 -211.8795,-10.8596 z m 300.0678,-542.6802 c 74.4395,-21.6161 203.3152,-55.9297 282.2918,-309.1893 46.2448,-123.2422 36.5715,-363.5655 26.2552,-506.4953 -72.0264,-262.1629 -93.5957,-297.9721 -249.0346,-391.1928 -123.1424,-53.4623 -238.8008,-40.554 -367.5038,14.8813 -122.453,102.7228 -206.3949,195.2595 -221.2886,503.2415 0.5686,147.8604 -0.7723,311.4007 44.3071,417.3412 52.92,124.3667 152.1485,336.1208 484.9729,271.4134 z" inkscape:connector-curvature="0" style="opacity:1;fill:#d6d3d8;fill-opacity:1;stroke:none;stroke-width:1.16776085;filter:url(#filter3209)"/>
    <path style="display:inline;opacity:1;fill:#d6d3d8;fill-opacity:1;filter:url(#filter3325)" d="m 2813.4746,4575.2912 c 45.402,-44.7714 232.4564,-29.5757 367.9271,-33.6809 108.5063,-0.1591 392.3746,-8.9587 619.2979,42 78.0906,18.4147 198.0452,77.3963 282.9826,147.5227 60.7579,41.1085 119.7015,122.0297 138.7935,159.9285 28.054,67.3694 38,208.8301 36,273.9382 -4,124 -23.5671,288.6402 -126.0175,380.2709 -49.7116,50.2343 -131.405,121.0183 -190.6846,148.6403 -45.7178,27.2112 -133.67,66.8427 -291.108,93.8562 -29.1803,4.5767 -95.919,15.757 -165.919,16.757 l -154.9643,9.2343 c 0.2281,60.1937 -2.1517,137.3406 -3.2752,205.0477 -2.399,144.5719 10.7782,258.9707 -69.3147,312.5489 -21.8568,20.3555 -42.1946,29.7735 -79.4808,34.0785 -38.5734,4.4537 -84.6243,2.8693 -139.7759,3.5126 -91.2297,1.064 -179.607,24.2192 -252.9358,-67.6631 -20.1597,-26.9683 -31.8832,-49.5018 -32.6713,-102.5789 -4.1981,-149.0039 -6.5837,-420.8976 -4.7842,-607.104 1.4608,-151.1509 -1.7588,-663.202 8.7942,-907.9434 3.6264,-57.269 10.5221,-62.3992 57.136,-108.3655 z m 817.5862,698.5908 c 23.8343,-13.4543 49.5218,-30.4513 61.0548,-69.9957 10.3311,-35.4234 9.8416,-82.5695 -22.7099,-111.3422 -29.6334,-21.2548 -55.903,-35.5691 -86.3193,-42.077 -30.4163,-6.508 -68.6996,-7.535 -133.5216,-9.1908 l -121.7996,-4.1387 c 0.1701,198.1027 -1.2331,88.1744 -0.3522,285.3647 l 115.783,-6.6037 c 47.5221,-4.476 71.211,-5.1642 99.8026,-9.4381 27.3434,-4.0872 51.1574,-14.6907 88.0622,-32.5785 z" id="path1593" inkscape:connector-curvature="0" sodipodi:nodetypes="sccccccccccscssccscscscsccccsc"/>
    <path style="display:inline;opacity:1;fill:#d6d3d8;fill-opacity:1;stroke:none;stroke-opacity:1;filter:url(#filter3445)" d="m 4256.2954,4603.6699 c 30.9032,-44.6543 52.2254,-46.2784 126.0047,-53.3737 l 1195.1049,-4.02 c 0,0 68.1864,5.1959 105.5503,30.8619 42.6253,32.2426 45.9524,95.1047 45.9524,95.1047 l 1.1851,255.1585 c 0,0 10.9129,38.8181 -34.774,75.8912 -45.6869,37.073 -130.6371,30.3397 -130.6371,30.3397 l -769.0807,6.6214 1.0317,87.4827 681.5164,8.1511 c 65.9846,10.8861 98.768,-2.0112 144.4163,39.1554 45.6484,41.1666 49.8903,76.3629 50.0614,116.1975 l -0.723,222.179 c -1.6677,33.2102 -29.5898,61.2956 -51.8893,79.928 -22.2994,18.6324 -34.7469,37.6011 -124.0278,40.5313 l -703.366,5.1064 -0.7044,232.9587 744.1748,0.9961 c 115.857,5.5582 154.3483,8.1633 193.3502,83.1601 13.5995,75.8844 33.34,272.1334 -23.3927,353.9648 -31.5695,27.088 -49.845,57.3627 -146.7304,55.6431 l -1200.0113,-0.2167 c -61.2608,-16.1085 -85.119,-37.8617 -102.8656,-57.6261 -17.7466,-19.7644 -30.4484,-44.1343 -32.9107,-71.6557 l -2.5555,-1502.6533 c -0.6276,-85.459 28.067,-119.4053 35.3203,-129.8861 z" id="path1595" inkscape:connector-curvature="0" sodipodi:nodetypes="sccccczcccczcczcccccccczccs"/>
    <path style="display:inline;opacity:1;fill:#d6d3d8;fill-opacity:1;filter:url(#filter3557)" d="m 5757.8697,4590.1013 c 45.3416,-41.6583 56.712,-39.274 135.5365,-43.7291 l 286.5647,-2.6262 c 70.5703,4.2366 94.7752,6.8291 134.7641,22.246 60.93,41.4535 75.8235,91.4567 113.7352,137.1851 l 423.8638,646.4381 1.8966,-551.1743 c 4.2712,-39.6484 -9.5942,-167.6543 51.8767,-212.8831 43.7521,-37.0736 83.3188,-37.409 106.1441,-38.2095 l 226.045,-1.8013 c 67.7189,5.9884 82.8883,15.2321 119.4496,40.7521 49.4441,36.8039 39.8282,78.2582 43.6985,196.444 l 4.9724,1316.7288 c -3.7656,150.911 -0.2969,178.1808 -54.7028,229.7843 -39.6166,25.2102 -52.9267,35.2942 -126.7418,38.1438 l -234.017,0.8637 c -42.7418,-3.1089 -68.3843,-6.8755 -106.5225,-19.1917 -47.8268,-31.0179 -48.3017,-39.0175 -115.8585,-141.0632 l -493.4613,-745.0538 -1.9038,531.8909 c -0.9844,183.214 10.5165,261.4346 -57.0264,331.1219 -48.8523,28.9407 -74.6862,37.4939 -129.4574,41.4433 l -189.5817,0.024 c -52.7348,0.2353 -93.5478,-6.6316 -137.5267,-45.084 -43.8083,-38.65 -55.994,-81.9504 -58.8789,-143.8524 l -5.2595,-1339.2783 c 2.1954,-133.2639 7.1811,-183.7507 62.3911,-249.1187 z" id="path1597" inkscape:connector-curvature="0" sodipodi:nodetypes="cccccccccccccccccccccccccccc"/>
    <path sodipodi:nodetypes="cccccccccccccccccccccccccccccccccc" inkscape:connector-curvature="0" id="path1599" d="m 7637.6421,6334.8544 c -16.3412,-13.2684 -12.2947,-45.2803 -17.1267,-147.3336 l -2.2414,-1769.1169 c -2.0631,-65.9408 -1.3055,-70.9779 24.1073,-90.5627 16.7162,-11.8477 59.739,-11.1997 90.9239,-12.1959 l 266.269,-0.5201 c 22.0549,0.6678 36.4366,2.4983 57.7939,11.0719 9.3355,3.7566 13.5555,18.209 51.7234,95.6744 l 401.44,881.2097 375.885,-867.4328 c 30.6689,-74.7405 32.0403,-87.6308 61.3141,-115.4023 21.0357,-13.3439 35.0959,-10.4114 103.5657,-9.339 l 197.3287,0.9424 c 39.5414,1.5967 73.5024,2.7285 102.8129,11.5334 31.3157,15.5036 24.8118,46.9373 30.8946,189.9937 l 3.5927,1736.7155 c -2.7949,52.8371 -2.6302,71.1467 -15.9477,85.5103 -21.4914,20.5378 -47.2576,22.661 -81.2447,22.8111 l -175.0073,0.9341 c -25.4853,-0.3175 -45.7093,2.9822 -69.5504,-12.7904 -16.896,-19.2134 -20.3098,-33.8232 -20.1065,-84.2758 l -11.2155,-1348.9939 -375.8727,841.1819 c -27.1335,46.1512 -32.8929,57.775 -42.9271,60.5203 -15.1292,9.8262 -30.9161,14.7198 -65.1176,14.681 l -73.5879,-0.2527 c -47.63,-3.8412 -57.4441,-6.0382 -68.9025,-14.483 -18.5769,-27.2629 -34.1943,-53.5392 -49.8117,-89.6806 l -360.4897,-788.2498 -11.3223,1317.6155 c -1.2866,29.5604 0.057,64.3821 -11.7517,81.7757 -17.0243,19.0088 -40.6253,23.8779 -85.6003,22.4991 l -157.1044,-1.1781 c -40.3539,-0.6057 -48.1533,-0.5538 -72.7231,-22.8624 z" style="display:inline;opacity:1;fill:#d6d3d8;fill-opacity:1;stroke:none;stroke-width:10px;stroke-linecap:butt;stroke-linejoin:miter;stroke-opacity:1;filter:url(#filter3657)"/>
    <path sodipodi:nodetypes="cccccccszzzzcccccscccczc" inkscape:connector-curvature="0" id="path1601" d="m 10914.717,4425.3674 c 13.237,25.0505 10.689,54.7047 14.061,106.7196 l -1.312,191.4469 c -2.853,54.5232 -14.255,70.9017 -46.045,90.5686 -27.102,13.5809 -57.492,-3.0908 -79.333,-20.4202 -197.153,-140.4652 -416.009,-217.7945 -628.946,-164.906 -261.6934,101.0205 -225.7613,271.7969 -150.766,392.349 123.421,103.4113 221.941,100.9956 459.214,159.9091 291.366,72.3441 364.01,150.8503 448.581,287.9127 84.571,137.0623 83.51,348.6194 42.733,463.5452 -40.778,114.9257 -94.528,259.1093 -275.862,358.1428 -181.334,99.0335 -395.691,123.5859 -566.043,100.4083 -170.3519,-23.1776 -489.7884,-100.5552 -547.7367,-173.1548 -13.768,-80.2439 -10.7946,-203.2715 -9.2163,-286.7707 4.1496,-61.8672 -8.9264,-92.4641 43.3108,-114.248 40.2622,-17.1669 92.6155,26.5863 142.6436,71.2696 145.3686,104.8036 301.4336,161.7082 424.9456,163.273 203.38,17.9029 327.406,-10.6113 406.241,-148.3318 52.804,-92.2446 29.091,-261.3094 -130.009,-339.263 -253.64,-71.3091 -452.037,-105.1314 -580.0634,-173.1522 -180.8632,-114.0932 -302.5366,-234.7632 -290.0462,-567.2014 28.6557,-195.3652 111.256,-349.8068 391.9632,-489.3672 130.9614,-59.5479 328.9084,-61.7465 501.0524,-43.6419 172.143,18.1047 393.85,95.8606 430.633,134.9124 z" style="opacity:1;fill:#d6d3d8;fill-opacity:1;stroke:none;stroke-width:10px;stroke-linecap:butt;stroke-linejoin:miter;stroke-opacity:1;filter:url(#filter2241)"/>
  </g>
  <g style="display:none;opacity:1" inkscape:label="red" id="g1609" inkscape:groupmode="layer">
    <path sodipodi:nodetypes="ccccccccsccsscccccsscccsccccccsccccccsccccccscccsssccsccsscccsccsccccsccccccccccsccsssscccsccccccccsccccscccccccccccccscccscccsccssscssscccccccccsscccccccccccccscccscsscccccssssscccccsscscccccsscssscccccccsccccccccsccccccccsscccscccsccccccccccsccccccccscccccscccccsccccccsccccscsccccscscccccccccsccccccccccccscsccssccssccccccscccccsccccccccscccccccccccscccccssscccccccccccccccccccscsscscccccccccccsccscccccccccscscscssscssccscssssccccccscsccssccssscccccssccccccccsccsccccccccccccccccccccccccssccccccccccccccccccssssssssssssscssssssccccccccccccccccccssssssssssssssssssssscccccccscscscsccsccscsssssssssssssscccscccccccsccscccsccsscccccsccccccccscsccscccccscccsscccscsccccccccsccccsccccccsccccscscccccccccscccsccccsscccscsccccccccscccccccccccscssccscsccccccccscc" inkscape:connector-curvature="0" id="path1607" d="m 2664.7534,1208.9211 c 2.8037,-38.1889 10.9784,-17.2958 11.3407,36.3122 L 2768.4702,5018.0815 2797,6345 c 6,44 14,166 17,270 8,245 15,380 26,480 14,127 19,198 25,370 5,146 17,276 31,348 4,18 12,27 25,27 24,0 56,-65 65,-133 6,-41 8,-44 24,-34 34,21 50,-7 50,-89 0,-40 4,-75 9,-78 5,-3 17,39 26,94 15,84 22,102 42,115 38,25 56,15 71,-38 7,-26 17,-45 21,-42 10,6 19,73 27,191 3,49 7,90 8,91 8,8 45,-13 57,-33 l 15,-25 21,43 c 12,24 30,65 41,93 16,39 25,49 44,49 18,0 23,-5 24,-24 0,-14 4,-38 8,-53 8,-27 9,-27 27,-11 11,10 22,14 26,11 3,-4 10,-73 14,-154 10,-183 16,-225 40,-288 10,-27 19,-71 19,-97 0,-26 4,-69 9,-95 14,-70 22,-162 26,-298 5,-158 14,-421 20,-565 3,-63 7,-236 10,-385 4,-148 13.8594,-819.8281 14.7831,-924.5469 l 33.3663,-1320.3375 c 6.3767,-31.4148 13.7351,-19.1564 14.2618,11.2031 6.4241,370.2373 33.0563,1235.4798 49.6835,1549.6012 2,3 13.9053,491.0801 16.9053,609.0801 4,118 9,247 11,285 7,109 14,237 20,400 12,295 19,350 48,383 23,27 28,67 33,252 6,208 14,250 49,250 17,0 25,-6 26,-17 0,-10 5,-4 10,12 12,39 39,70 67,77 17,5 22,2 22,-12 0,-25 10,-50 21,-50 5,0 9,14 9,30 0,17 8.4414,37.2109 14,65 8,18 12,35 10,38 8.5547,31.9727 20,57 37,57 13,0 20,10 24,38 3,20 10,56 16,79 5,23 9,55 9,71 0,25 4,30 25,30 18,0 27,-7 31,-24 7,-29 30,-31 37,-4 4,16 11,19 36,14 29,-6 31,-5 31,25 0,18 5,41 10,52 11,20 45,26 55,9 5,-9 35,-226 35,-258 0,-7 4,-11 9,-8 9,6 19,46 27,108 7,54 31,106 51,110 31,6 75,-21 68,-42 -3,-10 3,-56 14,-102 11,-46 23,-139 26,-208 4,-69 10,-139 15,-157 4,-17 9,-94 9,-170 1,-76 3,-151 5,-168 2,-16 7,-115 11,-220 4,-104 9,-199 11,-209 7,-37 18,-188 22,-293 l 9.4233,-218.7282 51.2275,0.1727 L 4821,6418 c 0,9 2,33 4,52 2,19 6,98 10,175 3,77 8,154 10,170 12,99 24,303 24,415 0,168 8,228 32,243 16,10 19,24 19,83 0,39 4,93 9,120 5,27 13,87 17,134 7,93 14,118 45,161 28,40 76,41 84,2 3,-16 12,-53 20,-83 8,-30 16,-68 17,-83 4,-34 21,-35 29,-3 4,13 16,37 28,52 12,16 23,47 25,69 3,22 15,69 29,105 18,49 29,66 45,68 27,4 40,-21 47,-89 7,-70 20,-81 39,-35 8,20 17,36 19,36 2,0 17,-19 32,-42 28,-42 28,-42 38,-18 31,78 37,88 55,83 14,-3 19,-15 20,-40 2,-45 4,-46 49,-46 31,0 39,4 41,20 4,24 35,21 55,-6 7,-9 18,-16 25,-17 49,-4 46,6 73,-227 23,-200 25,-222 39,-422 12,-179 21,-278 25,-285 2,-3 7,-44 10,-90 4,-47 9,-87 11,-89 13,-14 21,32 29,159 3,47 12,128 20,180 13,85 20,160 30,325 2,28 11,102 20,165 14,96 21,118 41,137 13,12 24,29 24,37 0,9 19,43 41,76 62,90 90,81 104,-34 6,-45 14,-65 33,-83 29,-27 42,-22 42,17 0,16 4,40 10,54 8,22 13,24 47,19 47,-7 45,-5 49,-48 3,-42 19,-65 45,-65 23,0 34,26 50,115 9,55 18,73 53,110 23,25 45,45 49,45 4,0 7,-13 7,-30 0,-37 30,-213 37,-220 3,-3 8,1 10,8 3,7 16,25 29,39 13,14 24,32 24,39 0,9 11,14 28,14 19,0 37,12 65,44 66,77 106,55 114,-63 2,-29 10,-79 17,-110 l 12,-56 13,62 c 10,53 15,63 40,71 l 27,10 13,-72 c 16,-95 27,-111 35,-52 6,39 11,46 30,46 25,0 56,-53 56,-96 0,-14 8,-54 17,-89 l 17,-64 18,31 c 11,16 32,35 47,41 27,10 29,15 35,86 9,103 9,101 33,146 11,22 25,56 31,75 29,96 48,135 69,138 29,4 39,-18 47,-103 4,-38 10,-85 13,-103 l 5,-33 27,23 c 27,25 80,61 82,56 1,-2 3,-12 4,-23 1,-11 6,-47 10,-80 l 8,-60 20,45 c 11,25 21,52 22,60 2,16 45,132 51,139 9,10 54,-32 54,-50 0,-17 3,-18 20,-9 17,9 22,7 31,-17 27,-69 28,-70 28,-46 1,25 18,39 44,35 12,-2 19,5 23,28 4,17 19,39 34,50 35,25 100,27 100,4 0,-9 9,-27 20,-41 11,-14 20,-39 20,-54 0,-16 5,-29 10,-29 6,0 10,5 10,10 0,6 7,21 15,34 21,32 60,24 80,-17 8,-16 15,-37 15,-46 1,-14 2,-14 9,-1 5,8 14,64 20,125 6,60 16,114 21,119 6,6 10,18 10,28 0,16 27,35 53,37 4,1 7,-18 7,-42 0,-24 4,-68 9,-98 6,-30 13,-83 16,-119 4,-36 8,-66 10,-68 4,-5 25,112 29,163 2,28 4,53 5,58 1,4 9,7 19,7 22,0 62,-51 62,-80 0,-40 17,-19 35,43 9,34 19,68 21,75 2,7 20,12 42,12 21,0 43,5 49,11 16,16 80,20 91,6 5,-7 15,-41 22,-76 12,-58 15,-62 23,-40 6,13 16,38 23,54 7,17 15,40 19,53 l 7,23 19,-25 c 10,-13 19,-30 19,-37 0,-18 42,-131 59,-157 11,-19 21,-23 47,-20 31,4 33,2 39,-39 4,-26 10,-41 17,-37 5,3 8,20 5,37 -2,17 2,46 9,63 8,18 15,47 17,66 6,53 25,91 43,84 9,-3 20,-6 24,-6 5,0 18,-19 29,-42 17,-39 19,-40 20,-16 1,23 5,26 29,24 19,-2 27,-9 28,-23 1,-10 7,-36 14,-57 12,-38 13,-38 29,-20 9,11 24,26 34,33 15,12 20,11 32,-5 8,-10 15,-27 15,-36 0,-11 8,-18 18,-18 27,0 49,29 58,75 4,22 18,54 31,72 26,34 39,34 81,2 13,-10 30,-15 38,-12 8,3 17,-2 20,-12 6,-14 11,-10 26,21 20,39 26,58 27,82 1,6 12,12 26,12 24,0 25,-3 27,-67 0,-38 2,-72 3,-78 2,-5 3,-34 4,-63 l 1,-53 29,20 28,21 22,-59 c 11,-32 30,-66 41,-76 20,-18 20,-17 21,11 4,85 27,222 39,229 4,3 18,-3 31,-13 13,-10 32,-21 41,-25 21,-7 58,-81 58,-116 1,-24 1,-25 12,-7 10,19 11,19 24,1 13,-17 14,-16 24,9 5,15 10,37 10,49 1,66 92,172 142,166 13,-2 43,10 70,29 57,39 68,40 68,3 0,-16 6,-34 14,-40 13,-11 22,-42 30,-101 2,-14 4,-28 5,-31 0,-3 12,-4 25,-2 22,5 25,0 40,-66 9,-38 16,-77 16,-85 0,-8 10,-16 22,-18 17,-2 25,-14 34,-48 7,-25 13,-43 14,-40 4,11 9,49 15,120 10,109 51,261 76,283 25,21 39,22 39,3 0,-7 7,-19 15,-26 9,-7 20,-32 26,-56 13,-49 25,-56 39,-20 7,19 14,22 35,19 14,-3 24,-8 21,-11 -3,-2 -1,-13 4,-23 6,-10 13,-53 16,-96 3,-43 8,-82 11,-87 3,-4 19,13 36,40 l 29,48 20,-27 c 12,-16 29,-27 43,-27 13,0 29,-10 39,-25 25,-37 36,-22 36,48 0,34 8,93 18,131 l 18,69 12,-39 c 7,-26 8,-52 2,-79 -5,-22 -10,-72 -10,-112 0,-70 -1,-72 -34,-92 -18,-12 -36,-21 -40,-21 -3,0 -15,20 -27,44 -15,32 -27,45 -47,49 -34,7 -39,3 -47,-32 -3,-15 -21,-43 -40,-61 l -34,-33 -6,39 c -4,22 -11,57 -15,78 -5,22 -7,43 -4,47 2,4 -1,30 -8,58 -11,51 -28,60 -28,15 0,-28 -7,-30 -38,-6 -15,12 -28,37 -35,71 -7,29 -16,53 -22,54 -13,3 -45,-114 -50,-183 -7,-94 -16,-153 -30,-205 -7,-27 -16,-63 -19,-78 -5,-22 -12,-28 -29,-25 -18,2 -22,10 -25,43 -1,22 -5,59 -8,82 l -5,43 -30,-15 -29,-16 v 63 c 0,35 -5,70 -10,78 -8,13 -10,13 -10,-2 0,-22 -11,-28 -39,-21 -15,4 -20,11 -16,23 12,38 -35,270 -55,270 -5,0 -16,-7 -25,-16 -11,-11 -25,-14 -45,-11 -19,4 -30,2 -34,-8 -3,-8 -14,-15 -25,-15 -18,0 -51,-47 -51,-73 0,-5 -12,-49 -27,-98 l -27,-88 -27,15 c -24,12 -29,12 -36,-1 -5,-9 -17,-12 -29,-9 -17,5 -22,16 -27,58 -6,64 -31,126 -50,126 -15,0 -23,-45 -33,-200 -3,-47 -10,-89 -15,-95 -15,-16 -42,8 -59,52 -18,46 -55,89 -64,74 -5,-8 -12,-109 -16,-218 0,-7 -11,-13 -25,-13 -23,0 -25,4 -26,43 -1,55 -6,131 -13,187 -4,25 -8,80 -10,123 -3,43 -6,81 -8,83 -3,2 -15,-17 -27,-42 -26,-52 -42,-52 -56,-2 -12,44 -32,68 -50,62 -7,-3 -16,0 -20,6 -8,14 -35,-33 -35,-60 0,-10 -5,-41 -12,-68 -11,-50 -11,-50 -45,-45 -24,4 -39,1 -53,-12 -18,-16 -19,-16 -34,20 -19,46 -34,42 -65,-18 -14,-25 -28,-44 -32,-41 -4,2 -10,27 -14,54 -8,60 -18,69 -34,32 -12,-25 -13,-26 -26,-8 -8,10 -22,43 -31,72 -18,60 -22,62 -28,18 -2,-16 -8,-47 -14,-69 -6,-22 -16,-78 -22,-125 -16,-125 -15,-123 -51,-105 -16,9 -30,23 -30,33 -2,27 -7,73 -14,119 -6,39 -8,42 -45,48 -28,5 -40,12 -40,23 0,10 -9,28 -20,42 -11,14 -20,35 -20,47 0,12 -4,24 -8,27 -11,6 -35,-92 -26,-105 8,-13 -21,-55 -46,-69 -17,-9 -20,-6 -24,22 -3,18 -13,79 -22,134 l -18,102 -40,-5 c -23,-3 -46,-6 -53,-8 -17,-5 -63,-159 -70,-233 -5,-57 -8,-63 -27,-60 -16,2 -24,15 -32,48 -26,100 -29,100 -49,-4 -17,-93 -19,-97 -46,-103 -16,-3 -32,-4 -36,-2 -9,5 -8,0 -18,109 -4,47 -9,94 -10,105 -2,11 -4,31 -4,45 -1,14 -5,20 -10,15 -5,-6 -12,-49 -15,-96 -8,-110 -21,-149 -50,-149 -17,0 -28,13 -47,50 -13,27 -27,50 -32,50 -11,0 -27,-47 -27,-79 0,-34 -6,-40 -30,-34 -23,6 -50,61 -50,103 0,38 -40,131 -55,127 -5,-2 -21,-26 -34,-55 -14,-29 -30,-52 -35,-52 -25,-1 -35,-19 -45,-79 -7,-41 -20,-79 -38,-104 l -28,-41 -7,55 c -3,30 -7,79 -7,109 -2,64 -7,76 -42,85 -23,6 -28,2 -38,-27 -7,-18 -16,-40 -21,-48 -4,-9 -11,-31 -15,-50 -4,-19 -11,-41 -16,-50 -5,-8 -12,-31 -17,-50 -7,-28 -13,-34 -33,-34 -22,0 -25,5 -31,59 -4,33 -11,79 -15,103 l -8,42 -29,-25 c -27,-23 -84,-35 -87,-17 -1,4 -2,18 -4,32 -12,155 -27,194 -41,105 -3,-25 -15,-56 -26,-70 -25,-32 -45,-133 -53,-270 -9,-165 -12,-177 -44,-173 -24,3 -26,7 -29,61 -2,31 -5,57 -6,57 -2,0 -18,-13 -36,-30 -18,-16 -36,-30 -40,-30 -7,0 -21,51 -25,85 -3,33 -28,115 -35,115 -10,0 -20,-26 -20,-51 0,-13 -7,-19 -23,-19 -20,0 -25,9 -41,70 -18,72 -36,100 -36,56 0,-27 -25,-46 -59,-46 -15,0 -23,10 -32,43 -13,45 -13,45 -24,152 -4,39 -9,73 -11,77 -2,4 -21,-9 -42,-28 -20,-18 -45,-34 -54,-34 -10,0 -18,-6 -18,-13 0,-8 -9,-22 -20,-32 -11,-10 -20,-23 -20,-29 0,-19 -44,-53 -65,-52 -34,3 -42,14 -49,63 -4,27 -12,71 -18,98 l -11,50 -12,-35 c -7,-19 -10,-39 -8,-43 3,-5 -2,-27 -10,-50 -8,-23 -21,-79 -27,-124 -7,-46 -16,-83 -20,-83 -10,0 -54,71 -56,90 -1,8 -2,21 -3,28 -1,6 -8,12 -16,12 -24,0 -55,42 -55,74 0,21 -3,27 -9,17 -5,-7 -6,-22 -4,-32 3,-10 -2,-37 -11,-59 -9,-22 -16,-52 -16,-65 0,-14 -4,-25 -9,-25 -13,0 -57,59 -66,88 -5,16 -12,21 -25,17 -22,-7 -27,6 -36,85 -3,30 -9,58 -13,63 -4,4 -22,-23 -40,-60 -18,-38 -39,-75 -46,-83 -7,-8 -16,-35 -19,-60 -3,-25 -9,-72 -15,-105 -5,-33 -12,-103 -16,-155 -9,-148 -15,-211 -26,-260 -5,-25 -11,-86 -13,-135 -6,-121 -17,-216 -27,-236 -5,-9 -9,-32 -11,-50 -1,-19 -8,-44 -16,-56 l -13,-22 -22,22 c -12,12 -22,27 -23,32 0,6 -3,28 -7,50 -3,22 -9,69 -12,105 -3,36 -10,97 -15,135 -11,82 -19,180 -30,360 -5,72 -11,144 -14,160 -2,17 -7,62 -11,100 -9,102 -24,206 -31,217 -4,5 -15,7 -26,5 -13,-4 -22,1 -27,16 l -8,22 -7,-23 c -9,-26 -24,-28 -42,-4 -12,15 -14,14 -20,-16 -6,-28 -10,-33 -33,-30 -20,2 -29,11 -37,38 -10,30 -12,32 -18,13 -8,-26 -36,-21 -68,12 l -22,23 -20,-25 c -19,-25 -20,-25 -35,-6 -9,10 -23,22 -33,25 -9,4 -19,24 -23,49 l -7,42 -13,-29 c -6,-16 -14,-46 -18,-66 -3,-20 -17,-54 -31,-74 -14,-21 -23,-41 -20,-46 3,-5 0,-17 -8,-26 -8,-9 -20,-37 -27,-61 l -13,-43 -28,33 c -31,37 -55,93 -46,108 4,5 1,22 -5,38 -7,15 -15,48 -18,73 l -6,44 -18,-27 c -9,-14 -19,-50 -22,-79 -5,-57 -12,-110 -21,-170 -3,-21 -7,-77 -9,-124 -2,-75 -6,-89 -24,-103 -22,-17 -25,-46 -36,-411 -3,-91 -9,-194 -14,-229 -6,-35 -13,-144 -17,-242 l -30.4781,-376.5643 -121.0058,2.6354 -43.9827,620.4557 c -7.1707,108.285 -12.4497,192.491 -13.5233,396.6273 -0.3929,74.6988 -6.2712,156.0646 -13.0385,235.4601 -4.3947,51.5597 -12.3258,101.4899 -15.251,150.9435 -2.9979,50.6851 -6.7813,94.1833 -10.0586,142.7737 -3.8872,57.6324 -14.3429,108.3044 -27.3679,152.723 -12.485,42.5766 -11.8727,82.5394 -15.2617,83.9423 -4.7008,1.9458 -27.972,-88.5821 -29.0466,-98.3616 -2.2695,-20.6541 -17.3513,-83.0688 -24.9614,-104.9232 -26.6749,-76.6038 -27.2212,-82.6827 -50.0205,-50.9029 -21.9177,30.5508 -39.0138,75.0657 -44.5246,106.1831 -14.3772,81.1817 -4.714,58.747 -14.5197,100.1786 -5.1756,21.8677 -23.5465,19.6319 -30.7993,19.2193 -41.4843,-2.3601 -66.1438,-20.6553 -87.8654,-29.1244 -15.0227,-5.8572 -25.8403,-7.8021 -42.1699,-18.8568 -30.9029,-70.1971 -17.3988,-193.6682 -38.8645,-210.3773 -5.8431,-4.5483 -26.4145,-1.3862 -33.4588,-4.7668 -19.7946,-9.4996 -28.5308,-70.6679 -36.931,-103.6305 -7.3399,-28.8022 -47.4804,-98.3682 -61.1937,-91.8962 -12.8652,6.0716 -38.6996,97.996 -45.6123,99.4691 -4.7488,1.012 -8.2755,-40.5003 -18.6175,-75.2402 -6.1227,-20.5668 -6.7973,-29.5997 -13.708,-59.6246 3.5537,-31.1539 2.2851,-44.2661 -8.627,-41.4518 -20.6858,9.8429 -46.4985,34.0901 -51.8035,35.388 -5.9844,-91.51 21.1768,-323.1984 -49.0273,-415.399 -26.5607,-66.6886 -22.738,-124.4003 -27.8922,-189.7078 L 3842.66,6151.9672 C 3827.3066,5805.7838 3825.8116,5458.9167 3804.8083,5113.0024 3786.8083,5109.0024 3790,4502 3789,4492 c -4,-62 -7,-151 -14,-407 -4,-159 -9,-308 -10,-330 -3,-45 -19,-592 -19,-672 -1,-48 -2,-52 -21,-47 -11,4 -21,7 -21,8 -1,0 -4,96 -8,211 -4,116 -8,228 -10,250 -12,138 -26,561 -27,808 l -25.3491,736.5264 c -24.8235,435.1599 11.8573,554.0765 -11.0739,989.3396 0,0 -11.1384,644.1883 -36.2763,1080.9821 -11.3669,197.5093 -34.519,349.3173 -45.2146,385.7429 -19.4605,66.2756 -28.1518,106.665 -32.7468,168.8348 -7.1889,97.2677 -1.6852,73.4752 -7.533,142.9242 -4.416,52.4438 -1.205,69.5806 -13.8008,89.9536 -3.8417,6.2136 -17.7741,-3.712 -32.0852,7.4234 -16.3089,12.6897 -18.2608,27.0731 -27.5261,24.911 -13.8071,-3.222 -20.9551,-49.9484 -62.5277,-100.571 -7.2823,-8.8676 -45.2793,-61.5899 -52.9422,-60.2658 -3.3139,0.5726 -4.5303,12.056 -9.9124,11.763 -9.9837,-0.5434 -22.07,-240.2007 -37.936,-261.4766 -11.7432,-15.7475 -23.6072,-12.1718 -32.8157,-7.7753 -15.9931,7.6358 -28.2239,25.521 -39.025,56.0291 -24.0549,67.944 -19.9671,92.5128 -30.5966,98.8016 -13.8332,8.1841 -8.4118,-21.1803 -19.379,-62.3288 -2.9683,-11.1368 -35.963,-223.0459 -53.844,-231.1876 -18.3968,-8.3766 -36.1895,-7.8419 -42.7673,2.4943 -32.7466,51.4571 -15.9636,194.256 -37.2136,205.1701 -7.671,3.9399 -6.0951,-4.238 -11.9462,-3.2019 -4.3626,0.7726 -15.1923,11.1142 -19.829,18.6484 -46.0713,74.862 -34.2218,118.3966 -46.6108,116.0502 -19.3735,-3.6691 -17.0581,-248.9636 -17.0581,-248.9636 l -41.7624,-525.5897 -13.6715,-332.2296 -63.2584,-1292.4331 C 2792.2864,4948.9951 2779,4118 2776,3730 c -4,-388 -9,-741 -11,-785 -6,-94 -13,-327 -20,-615 -3,-113 -7,-256 -10,-318 -3,-62 -8,-289 -11,-505 -3,-215 -7,-410 -9,-432 -2,-22 -6,-164 -10,-315 -3,-151 -8,-318 -10,-370 -2,-52 -4,-121 -5,-152 0,-50 -3,-58 -19,-58 -13,0 -23,11 -30,33 -6,19 -12,251 -15,567 -4,294 -8,681 -11,860 -3,179 -7,645 -10,1035 -2,391 -7,753 -9,805 -3,52 -6,255 -6,450 0,195 -29.2403,822.3204 13.2902,1083.3698 l -50.5111,1233.3427 c -1.321,32.2545 -10.4207,415.5995 -27.3393,742.5776 -12.9205,249.709 -33.6572,465.7297 -39.6436,472.2281 -5.6169,6.0974 -12.3633,-8.2627 -29.6142,-19.2934 -14.3051,-9.147 -27.2058,1.8528 -33.6514,11.3148 -14.4219,21.1708 -48.4626,361.888 -62.6096,367.4563 -13.2561,5.2177 -21.0615,-60.0036 -43.3953,-99.8364 -9.5708,-17.0696 -33.2171,-16.6487 -45.2332,-4.2241 -10.8255,11.1934 -3.217,134.4276 -19.6365,143.7016 -17.9373,10.1314 -16.4576,-165.4342 -46.7465,-222.3908 -8.7149,-16.3881 -36.1553,-12.5925 -40.3361,-1.474 -35.3622,94.0412 -35.6663,294.6077 -55.1658,291.7628 -11.9684,-1.7462 -44.3394,-294.7828 -51.6463,-330.3521 -14.0279,-68.2861 -20.1388,-361.0424 -42.5729,-361.6722 -35.4326,-0.9947 -52.0403,74.4648 -65.0901,90.367 -9.1695,-122.944 -23.3542,-369.5442 -31.2234,-386.633 -4.4101,-27.4799 -0.2686,-78.409 -36.0499,-135.0227 -34.8797,-13.8418 -29.2242,-7.8027 -44.6011,-21.269 -45.3428,-39.7089 -28.0794,-102.9205 -47.4966,-271.7598 l -12.9705,-236.0418 -3.9461,-414.6126 -75.1918,-2248.3471 C 1698.6189,3419.1917 1697,3205 1695,3155 c -2,-49 -7,-207 -10,-350 -4,-143 -8,-273 -11,-290 -2,-16 -6,-145 -10,-285 -4,-140 -8,-262 -10,-270 -1,-8 -3,-30 -3,-47 -1,-26 -5,-33 -21,-33 -11,0 -20,3 -21,8 0,4 -12.7828,80.2687 -19.6166,153.4168 l -26.4988,1308.6189 c -2,143 -3.8846,213.9643 -3.8846,309.9643 0,96 -39.2888,2371.8955 -43.2888,2408.8955 L 1504,6477 c -1,43 -5,157 -8,253 -3,96 -9,229 -12,295 -3,66 -8,165 -10,220 -3,55 -6,111 -8,125 -1,14 -4,40 -4,58 l -2,34 -31,-26 c -17,-14 -34,-26 -39,-26 -4,0 -10,33 -13,73 -7,91 -15,150 -27,207 -5,25 -12,71 -16,103 -6,50 -8,55 -19,40 -8,-10 -15,-16 -17,-13 -3,3 -14,21 -26,40 l -21,35 -16,-37 c -8,-21 -15,-58 -15,-83 v -45 h -41 c -25,0 -52,8 -70,21 l -29,20 v -25 c 0,-26 -23,-36 -35,-16 -4,6 -11,8 -16,4 -5,-3 -16,0 -24,6 -8,7 -15,11 -16,9 -2,-12 -8,-56 -19,-156 -7,-62 -17,-113 -21,-113 -20,0 -50,40 -58,80 -28,125 -36,183 -47,329 -4,57 -12,95 -20,102 -8,6 -14,20 -14,30 0,20 -28,39 -58,39 -15,0 -22,-9 -27,-37 -4,-21 -10,-42 -14,-48 -11,-14 -35,-106 -34,-128 2,-22 -24,-34 -40,-18 -19,19 -25,12 -32,-44 -3,-30 -9,-55 -13,-55 -13,0 -52,44 -52,59 -1,12 -3,11 -12,-4 -6,-11 -12,-21 -14,-23 -1,-2 -12,1 -23,7 -12,7 -26,31 -35,59 l -13,47 -13,-45 c -7,-25 -13,-54 -15,-66 -3,-30 -14,-44 -34,-44 -15,0 -20,11 -25,50 -4,28 -11,62 -16,76 -8,21 -13,23 -29,14 -17,-9 -20,-6 -23,18 -4,34 13,122 24,122 4,0 8,-12 9,-27 0,-16 4,-37 8,-47 6,-16 9,-17 16,-6 6,10 13,0 25,-36 l 17,-49 9,45 c 6,25 15,45 22,44 7,-1 23,-2 37,-2 17,-2 26,-9 31,-26 l 6,-24 23,24 c 28,28 45,31 45,7 0,-14 7,-10 28,15 30,36 42,40 42,15 0,-33 23,5 45,74 l 22,68 54,1 c 60,2 72,-5 104,-56 17,-28 25,-62 34,-163 7,-71 16,-140 22,-153 5,-14 9,-37 10,-52 1,-23 2,-22 9,8 4,19 13,68 20,108 6,39 16,72 21,72 5,0 21,-19 36,-42 l 27,-43 8,60 c 10,78 13,85 37,85 23,0 36,-20 46,-72 6,-30 44,-94 45,-77 8,78 28,167 43,187 15,19 46,14 71,-13 23,-24 24,-25 29,-5 3,12 13,20 25,20 16,0 21,-8 26,-37 7,-50 20,-145 21,-158 1,-5 8,-52 15,-102 12,-84 16,-93 35,-93 45,0 54,-19 69,-145 8,-66 18,-203 21,-305 3,-102 8,-237 10,-300 l 27.6752,-763.3989 57.6327,-3611.4466 10.6019,11.4004 97.1133,3482.2971 L 1744,6468 c 3,20 8,85 12,144 3,59 7,118 9,130 5,24 50,68 71,68 7,0 15,4 18,8 13,22 27,147 45,400 8,122 21,146 69,138 28,-4 29,1 37,159 4,66 13,156 22,200 8,44 21,118 27,165 7,47 19,95 27,108 19,31 51,25 63,-13 5,-16 13,-39 18,-50 5,-12 11,-41 12,-65 5,-58 5,-58 16,-40 5,8 10,41 10,72 0,33 8,75 20,102 16,38 24,46 45,46 15,0 25,-5 24,-12 -1,-7 1,-55 6,-105 9,-114 19,-121 39,-30 9,39 46,34 58,-8 12,-42 49,-240 54,-295 9,-85 12,-90 44,-90 40,0 46,-17 55,-170 4,-69 9,-128 11,-131 10,-17 19,-227 30,-692 3,-142 7,-266 9,-275 2,-10 6,-83 10,-162 4,-80 25.1917,-1016.3107 22.9861,-1160.5371 z M 317,8013 c -4,-3 -7,0 -7,7 0,7 3,10 7,7 3,-4 3,-10 0,-14 z" style="fill:#f30519;fill-opacity:1;stroke:none;stroke-width:32;stroke-linecap:round;stroke-linejoin:round;stroke-miterlimit:4;stroke-dasharray:none;stroke-opacity:1"/>
  </g>
  <g inkscape:groupmode="layer" id="layer10" inkscape:label="red alternate" style="display:inline;opacity:1">
    <path style="fill:none;fill-opacity:1;stroke:#f30519;stroke-width:37;stroke-linecap:round;stroke-linejoin:miter;stroke-miterlimit:15;stroke-dasharray:none;stroke-opacity:1;paint-order:normal" d="m 11047.998,8016.0004 c 2.857,-27.3811 8,-52 2,-79 -5,-22 -10,-72 -10,-112 0,-70 -1,-72 -34,-92 -18,-12 -36,-21 -40,-21 -3,0 -15,20 -27,44 -9.476,7.1408 -20.095,18.7597 -47,49 -34,56.7184 -39,3 -47,-32 -3,-15 -21,-43 -40,-61 l -34,-33 -6,39 c -4,22 -11,57 -15,78 -5,22 -7,43 -4,47 2,4 -1,30 -8,58 -11,51 -4.522,94.5267 -28,15 -7.928,-26.8542 -7,-30 -38,-6 -15,12 -28,37 -35,71 -7,29 -16,53 -22,54 -13,3 -45,-114 -50,-183 -7,-94 -16,-153 -30,-205 -7,-27 -16,-63 -19,-78 -5,-22 -12,-28 -29,-25 -18,2 -22,10 -25,43 -1,22 -5,59 -8,82 l -5,43 -18.951,-17.7621 -27.619,-18.7622 -12.43,68.5243 c -6.247,34.438 4.667,57.5704 -0.333,65.5704 -8,13 -18.286,115.199 -18.286,100.199 0,-22 -12.381,-117.7694 -40.381,-110.7694 -15,4 -20,11 -16,23 12,38 -35,270 -55,270 -5,0 -16,-7 -25,-16 -11,-11 -25,-14 -45,-11 -19,4 -30,2 -34,-8 -3,-8 -14,-15 -25,-15 -18,0 -51,-47 -51,-73 0,-5 -12,-49 -27,-98 l -27,-88 -27,15 c -24,12 -29,12 -36,-1 -5,-9 -17,-12 -29,-9 -17,5 -22,16 -27,58 -6,64 -31,126 -50,126 -15,0 -23,-45 -33,-200 -3,-47 -10,-89 -15,-95 -15,-16 -42,8 -59,52 -18,46 -39.8083,159.4345 -48.8083,144.4345 -5,-8 -27.1917,-179.4345 -31.1917,-288.4345 0,-7 -11,-13 -25,-13 -23,0 -25,4 -26,43 -1,55 -6,131 -13,187 -4,25 -8,80 -10,123 -3,43 9.1917,158.3398 7.1917,160.3398 -3,2 -30.1917,-94.3398 -42.1917,-119.3398 -26,-52 -42,-52 -56,-2 -12,44 -32,68 -50,62 -7,-3 -16,0 -20,6 -8,14 -35,-33 -35,-60 0,-10 -5,-41 -12,-68 -11,-50 -11,-50 -45,-45 -24,4 -39,1 -53,-12 -18,-16 -19,-16 -34,20 -19,46 -34,42 -65,-18 -14,-25 -28,-44 -32,-41 -4,2 -10,27 -14,54 -8,60 -5.5704,202.9636 -34,32 -12,-25 -13,-26 -26,-8 -8,10 -22,43 -31,72 -18,60 -22,62 -28,18 -2,-16 -8,-47 -14,-69 -6,-22 -16,-78 -22,-125 -16,-125 -15,-123 -51,-105 -16,9 -21.7136,20.2379 -21.7136,30.2379 -2,27 -15.2864,75.7621 -22.2864,121.7621 -6,39 -8,42 -45,48 -28,5 -40,12 -40,23 0,10 -9,28 -20,42 -11,14 -20,35 -20,47 0,12 -4,88.9102 -8,91.9102 -11,6 -33.6189,-133.432 -39.8107,-175.4345 -9.9539,-21.2864 -16.8568,-56.381 -32.1893,-63.4757 -17,-9 -20,-6 -24,22 -3,18 -13,79 -22,134 l -18,102 -40,-5 c -23,-3 -46,-6 -53,-8 -17,-5 -63,-159 -70,-233 -5,-57 -8,-63 -27,-60 -16,2 -24,15 -32,48 -26,100 -22.0947,309.9223 -49,-4 -17,-93 -19,-97 -46,-103 -16,-3 -32,-4 -36,-2 -9,5 -8,0 -18,109 -4,47 -9,94 -10,105 -2,11 -4,31 -4,45 -1,14 6.0485,102.8641 1.0485,97.8641 -5,-6 -23.0485,-131.8641 -26.0485,-178.8641 -8,-110 -21,-149 -50,-149 -17,0 -28,13 -47,50 -13,27 -27,50 -32,50 -11,0 -27,-47 -27,-79 0,-34 -6,-40 -30,-34 -23,6 -50,61 -50,103 0,38 -40,131 -55,127 -5,-2 -21,-26 -34,-55 -14,-29 -30,-52 -35,-52 -25,-1 -35,-19 -45,-79 -7,-41 -20,-79 -38,-104 l -28,-41 -7,55 c -3,30 -7,79 -7,109 -2,64 -7,76 -42,85 -23,6 -5.9029,109.7233 -44.9053,-24.2379 -7,-18 -9.0947,-42.7621 -14.0947,-50.7621 -4,-9 -11,-31 -15,-50 -4,-19 -11,-41 -16,-50 -5,-8 -12,-31 -17,-50 -7,-28 -13,-34 -33,-34 -22,0 -25,5 -31,59 -4,33 -11,79 -15,103 l -8,42 -29,-25 c -27,-23 -84,-35 -87,-17 -1,4 -2,18 -4,32 -7.8568,244.7694 -27,194 -41,105 -3,-25 -15,-56 -26,-70 -25,-32 -45,-133 -53,-270 -9,-165 -12,-177 -44,-173 -24,3 -26,7 -29,61 -6.7933,151.8049 1.2335,108.6145 -42,27 -18,-16 -36,-30 -40,-30 -7,0 -21,51 -25,85 -3,33 -22.4757,189.5777 -29.4757,189.5777 -10,0 -20,-26 -20,-51 0,-13 -12.5243,-93.5777 -28.5243,-93.5777 -20,0 -25,9 -41,70 -6.9515,301.2573 -36,100 -36,56 0,-27 -25,-46 -59,-46 -15,0 -23,10 -32,43 -13,45 -13,45 -24,152 -4,39 -9,73 -11,77 -2,4 -21,-9 -42,-28 -20,-18 -45,-34 -54,-34 -10,0 -18,-6 -18,-13 0,-8 -9,-22 -20,-32 -11,-10 -20,-23 -20,-29 0,-19 -44,-53 -65,-52 -34,3 -42,14 -49,63 -4,27 -12,71 -18,98 l -8.2379,76.2403 -14.7621,-61.2403 c -7,-19 -10,-39 -8,-43 3,-5 -2,-27 -10,-50 -8,-23 -21,-79 -27,-124 -7,-46 -16,-83 -20,-83 -10,0 -54,71 -56,90 -1,8 -2,21 -3,28 -1,6 -8,12 -16,12 -24,0 -55,42 -55,74 0,21 -3,27 -9,17 -5,-7 -6,-22 -4,-32 3,-10 -2,-37 -11,-59 -9,-22 -16,-52 -16,-65 0,-14 -4,-25 -9,-25 -13,0 -57,59 -66,88 -5,16 -12,21 -25,17 -22,-7 -27,6 -36,85 -3,30 -9,58 -13,63 -4,4 -22,-23 -40,-60 -18,-38 -39,-75 -46,-83 -7,-8 -16,-35 -19,-60 -3,-25 -9,-72 -15,-105 -5,-33 -12,-103 -16,-155 -9,-148 -15,-211 -26,-260 -5,-25 -11,-86 -13,-135 -6,-121 -17,-216 -27,-236 -5,-9 -9,-32 -11,-50 -1,-19 -8,-44 -16,-56 l -13,-22 -22,22 c -12,12 -22,27 -23,32 0,6 -3,28 -7,50 -3,22 -9,69 -12,105 -3,36 -10,97 -15,135 -11,82 -19,180 -30,360 -5,72 -11,144 -14,160 -2,17 -7,62 -11,100 -9,102 -24,206 -31,217 -4,5 -15,7 -26,5 -13,-4 -22,1 -27,16 l -8,22 -7,-23 c -9,-26 -24,-28 -42,-4 -12,15 -14,14 -20,-16 -6,-28 -10,-33 -33,-30 -20,2 -11.9102,11.4883 -19.9102,38.4883 -10,30 2.6485,207.293 -35.0898,12.5117 -8,-26 -36,-21 -68,12 l -24.7621,47.8592 -17.2379,-49.8592 c -19,-25 -20,-25 -35,-6 -9,10 -23,22 -33,25 -9,4 -19,24 -23,49 l -5.6189,68.2403 -14.3811,-55.2403 c -6,-16 -14,-46 -18,-66 -3,-20 -17,-54 -31,-74 -14,-21 -23,-41 -20,-46 3,-5 0,-17 -8,-26 -8,-9 -20,-37 -27,-61 l -13,-43 -28,33 c -31,37 -55,93 -46,108 4,5 1,22 -5,38 -7,15 -15,48 -18,73 l -6,44 -18,-27 c -9,-14 -19,-50 -22,-79 -5,-57 -12,-110 -21,-170 -3,-21 -7,-77 -9,-124 -2,-75 -28.0971,-133.1942 -46.0971,-147.1942 -33.0485,-195.1577 -12.5704,-14.2354 -23.5704,-379.2354 -3,-91 0.6675,-181.5704 -4.3325,-216.5704 -6,-35 -13,-144 -17,-242 l -30.4781,-376.5643 -121.0058,2.6354 -43.9827,620.4557 c -7.1707,108.285 -12.4497,192.491 -13.5233,396.6273 -0.3929,74.6988 -6.2712,156.0646 -13.0385,235.4601 -4.3947,51.5597 -12.3258,101.4899 -15.251,150.9435 -2.9979,50.6851 -6.7813,94.1833 -10.0586,142.7737 -3.8872,57.6324 -6.5304,111.2341 -19.5554,155.6527 -12.485,42.5766 -19.6852,79.6097 -23.0742,81.0126 -4.7008,1.9458 -27.972,-88.5821 -29.0466,-98.3616 -2.2695,-20.6541 -17.3513,-83.0688 -24.9614,-104.9232 -26.6749,-76.6038 -27.2212,-82.6827 -50.0205,-50.9029 -21.9177,30.5508 -25.3419,72.136 -30.8527,103.2534 -14.3772,81.1817 -14.4796,146.6376 -24.2853,188.0692 -5.1756,21.8677 -27.4528,-65.329 -34.7056,-65.7416 -41.4843,-2.3601 -70.0501,-42.1397 -91.7717,-50.6088 -15.0227,-5.8572 -29.7465,46.8854 -46.0761,35.8307 -30.9029,-70.1971 -28.141,-234.6838 -49.6067,-251.3929 -5.8431,-4.5483 -23.4848,33.7701 -30.5291,30.3895 -19.7946,-9.4996 -22.6714,-99.9648 -31.0716,-132.9274 -7.3399,-28.8022 -37.7148,-96.4151 -51.4281,-89.9431 -12.8652,6.0716 -38.6996,97.996 -45.6123,99.4691 -4.7488,1.012 -8.2755,-40.5003 -18.6175,-75.2402 -6.1227,-20.5668 -6.7973,-29.5997 -13.708,-59.6246 3.5537,-31.1539 2.2851,-44.2661 -8.627,-41.4518 -20.6858,9.8429 -46.4985,98.5432 -51.8035,99.8411 -5.9844,-91.51 -23.7451,-360.3077 -49.0273,-479.8521 -26.5607,-66.6886 -22.738,-124.4003 -27.8922,-189.7078 l -31.7292,-702.2045 c -15.3534,-346.1834 -16.8484,-693.0505 -37.8517,-1038.9648 -18,-4 -14.8083,-611.0024 -15.8083,-621.0024 -4,-62 -7,-151 -14,-407 -4,-159 -9,-212.7063 -10,-234.7063 -2.9984,-44.9864 -11.4356,-527.7026 -19,-672 -10.6675,-95.6469 -13.0485,-129.3398 -21,-142.2937 -13.6089,9.0346 -28.2174,196.4389 -29,219 -4,116 -8,228 -10,250 -12,138 -26,561 -27,808 l -25.3491,736.5264 c -24.8235,435.1599 11.8573,554.0765 -11.0739,989.3396 0,0 -11.1384,644.1883 -36.2763,1080.9821 -11.3669,197.5093 -24.8515,343.793 -35.5471,380.2186 -19.4605,66.2756 -25.3897,108.0461 -29.9847,170.2159 -7.1889,97.2677 -0.3041,76.2373 -6.1519,145.6863 -4.416,52.4438 0.176,79.2481 -12.4198,99.6211 -3.8417,6.2136 -32.9658,-11.9984 -47.2769,-0.863 -16.3089,12.6897 -11.3555,79.5537 -20.6208,77.3916 -13.8071,-3.222 -27.8604,-102.429 -69.433,-153.0516 -7.2823,-8.8676 -45.2793,-61.5899 -52.9422,-60.2658 -3.3139,0.5726 -21.1031,82.4905 -26.4852,82.1975 -9.9837,-0.5434 -5.4972,-310.6352 -21.3632,-331.9111 -11.7432,-15.7475 -23.6072,-12.1718 -32.8157,-7.7753 -15.9931,7.6358 -28.2239,25.521 -39.025,56.0291 -24.0549,67.944 -19.9671,92.5128 -30.5966,98.8016 -13.8332,8.1841 -8.4118,-21.1803 -19.379,-62.3288 -2.9683,-11.1368 -35.963,-223.0459 -53.844,-231.1876 -18.3968,-8.3766 -22.5176,-7.8419 -29.0954,2.4943 -32.7466,51.4571 -11.6816,224.6395 -32.9316,235.5536 -7.671,3.9399 -24.049,-34.6215 -29.9001,-33.5854 -4.3626,0.7726 -15.1923,11.1142 -19.829,18.6484 -46.0713,74.862 -36.9839,177.7825 -49.3729,175.4361 -19.3735,-3.6691 -14.296,-308.3495 -14.296,-308.3495 l -41.7624,-525.5897 -13.6715,-332.2296 -63.2584,-1292.4331 c -2.0119,-373.5766 -15.2983,-1204.5717 -18.2983,-1592.5717 -4,-388 -9,-741 -11,-785 -6,-94 -13,-327 -20,-615 -3,-113 -7,-256 -10,-318 -3,-62 -8,-289 -11,-505 -3,-215 -7,-410 -9,-432 -2,-22 -6,-164.00035 -10,-315.00035 -3,-151 -8,-318 -10,-370 -2,-52 -4,-121 -5,-152 0,-50 -3,-58 -19,-58 -13,0 -23,11 -30,33 -6,19 -12,251 -15,567 -4,294.00035 -8,681.00035 -11,860.00035 -3,179 -7,645 -10,1035 -2,391 -7,753 -9,805 -3,52 -6,255 -6,450 0,195 -29.2403,822.3204 13.2902,1083.3698 l -50.5111,1233.3427 c -1.321,32.2545 -10.4207,415.5995 -27.3393,742.5776 -12.9205,249.709 -33.6572,465.7297 -39.6436,472.2281 -5.6169,6.0974 -12.3633,-8.2627 -29.6142,-19.2934 -14.3051,-9.147 -27.2058,1.8528 -33.6514,11.3148 -14.4219,21.1708 -49.8437,406.0822 -63.9907,411.6505 -13.2561,5.2177 -19.6804,-104.1978 -42.0142,-144.0306 -9.5708,-17.0696 -33.2171,-16.6487 -45.2332,-4.2241 -10.8255,11.1934 7.8315,264.248 -8.588,273.522 -17.9373,10.1314 -16.4576,-165.4342 -46.7465,-222.3908 -8.7149,-16.3881 -33.3931,-165.8911 -37.5739,-154.7726 -35.3622,94.0412 -49.477,334.6587 -68.9765,331.8138 -11.9684,-1.7462 -44.3394,-311.3556 -51.6463,-346.9249 -14.0279,-68.2861 -20.1388,-361.0424 -42.5729,-361.6722 -35.4326,-0.9947 -52.0403,74.4648 -65.0901,90.367 -9.1695,-122.944 -23.3542,-369.5442 -31.2234,-386.633 -4.4101,-27.4799 -0.2686,-78.409 -36.0499,-135.0227 -34.8797,-13.8418 -29.2242,-7.8027 -44.6011,-21.269 -45.3428,-39.7089 -28.0794,-102.9205 -47.4966,-271.7598 l -12.9705,-236.0418 -3.9461,-414.6126 -75.1918,-2248.3471 c 0,-194 -1.6189,-408.1917 -3.6189,-458.1917 -2,-49 -7,-207 -10,-350 -4,-143 -8,-273 -11,-290 -2,-16 -6,-145 -10,-285 -4,-140 -8,-262 -10,-270 -1,-8 -3,-30 -3,-47 -1,-26 -5,-33 -21,-33 -11,0 -20,3 -21,8 0,4 -12.7828,80.2687 -19.6166,153.4168 l -26.4988,1308.6189 c -2,143 -3.8846,213.9643 -3.8846,309.9643 0,96 -39.2888,2371.8955 -43.2888,2408.8955 l -11.7112,408.1045 c -1,43 -5,157 -8,253 -3,96 -9,229 -12,295 -3,66 -8,165 -10,220 -3,55 -6,111 -8,125 -1,14 -4,40 -4,58 l -2,70.6211 -22.2109,-62.1328 c -17,-14 -32.0469,-28.9297 -37.0469,-28.9297 -4,0 -12.9297,37.8828 -15.9297,77.8828 -7,91 -14.5261,147.2133 -26.5261,204.2133 -5,25 -12,77.5601 -16,109.5601 -2.5473,53.4527 10.2992,125.7797 -27.2864,33.7852 -8,-10 -15,-16 -17,-13 -3,3 -14,21 -26,40 l -21,35 -16,-37 c -8,-21 -19.2847,-52.4222 -22.9411,-80.5831 l -6.5601,-50.5243 -26.4988,3.1074 c -24.8299,2.9117 -52,8 -70,21 l -28.6547,88.0176 -10.358,-86.8028 c -3.0807,-25.8168 -12.9873,-42.2148 -24.9873,-22.2148 -4,6 -11,8 -16,4 -5,-3 -16,0 -24,6 -8,7 -20.37109,35.0479 -21.37107,33.0479 -2,-12 -2.62891,-80.0479 -13.62891,-180.0479 -7,-62 -17,-113 -21,-113 -20,0 -50,40 -58,80 -28,125 -36,183 -47,329 -4,57 -12,95 -20,102 -8,6 -14,20 -14,30 0,20 -28,39 -58,39 -15,0 -22,-9 -27,-37 -4,-21 -10,-42 -14,-48 -11,-14 -35,-106 -34,-128 2,-22 -24,-34 -40,-18 -19,19 -24.02344,147.7422 -32,-44 -3,-30 -9,-55 -13,-55 -13,0 -49.07031,114.3125 -49.07031,129.3125 -1,12 -3,11 -12,-4 -6,-11 -14.92969,-91.3125 -16.92969,-93.3125 -1,-2 -12,1 -23,7 -12,7 -26,31 -35,59 l -13,47 -13,-45 c -7,-25 -13,-54 -15,-66 -3,-30 -14,-44 -34,-44 -15,0 -20,11 -25,50 -4,28 -11,62 -16,76 -8,21 -13,23 -29,14 -17,-9 -20,-6 -23,18 -4,34 -0.46542,101.9745 -1.89503,148.9308" id="path519" inkscape:connector-curvature="0" sodipodi:nodetypes="ccscscccccccccsccccccccccccscsccssccssccccccscccccsccccccccscccccccccccscccccssscccccccccccccccccccscsscscccccccccccsccscccccccccsccscssscssccscssssccccccscsccssccssscccccssccccccccsccsccccccccccccccccccccccccssccccccccccccccccccssssssssssssscsssssscccccccccccccccccssssssssssssssssssssscccccccscscscsccsccscsssssssssssssscccscccccccsccscccsccsscccccsccccccccscsccscccccscccsscccscsccccccccsccccc"/>
  </g>
  <g inkscape:groupmode="layer" id="layer6" inkscape:label="blue" style="display:inline;opacity:1">
    <path style="opacity:1;fill:#29379b;fill-opacity:1;stroke:none;stroke-width:1.16776085" inkscape:connector-curvature="0" d="m 1480.009,6299.1094 c -118.0763,-18.4784 -286.9253,-80.8431 -373.121,-138.5883 -114.5339,-76.2235 -249.1408,-226.3608 -309.35969,-344.1609 -41.32667,-81.9981 -98.00327,-251.7687 -116.89547,-346.4707 -22.43449,-120.1099 -20.07295,-552.0434 4.72305,-670.9983 22.43448,-110.8707 63.76117,-227.5158 120.43776,-336.0766 175.93352,-341.8511 543.15065,-525.4647 980.03285,-482.7333 497.1008,48.5059 807.6414,382.2568 880.8487,935.455 14.1691,102.7863 14.1691,358.0198 0,456.1865 -67.3035,485.059 -305.8175,791.1081 -702.5537,900.8239 -75.5688,20.7882 -130.5415,35.1124 -272.233,37.4223 -96.8225,2.3097 -191.8066,-7.3948 -211.8795,-10.8596 z m 300.0678,-542.6802 c 74.4395,-21.6161 203.3152,-55.9297 282.2918,-309.1893 46.2448,-123.2422 36.5715,-363.5655 26.2552,-506.4953 -72.0264,-262.1629 -93.5957,-297.9721 -249.0346,-391.1928 -123.1424,-53.4623 -238.8008,-40.554 -367.5038,14.8813 -122.453,102.7228 -206.3949,195.2595 -221.2886,503.2415 0.5686,147.8604 -0.7723,311.4007 44.3071,417.3412 52.92,124.3667 152.1485,336.1208 484.9729,271.4134 z" id="path391-2-4" sodipodi:nodetypes="ccccccccccccccccccsc"/>
    <path sodipodi:nodetypes="sccccccccccscssccscscscsccccsc" inkscape:connector-curvature="0" id="path1536" d="m 2725.478,4475.2915 c 45.402,-44.7714 232.4564,-29.5757 367.9271,-33.6809 108.5063,-0.1591 392.3746,-8.9587 619.2979,42 78.0906,18.4147 198.0452,77.3963 282.9826,147.5227 60.7579,41.1085 119.7015,122.0297 138.7935,159.9285 28.054,67.3694 38,208.8301 36,273.9382 -4,124 -23.5671,288.6402 -126.0175,380.2709 -49.7116,50.2343 -131.405,121.0183 -190.6846,148.6403 -45.7178,27.2112 -133.67,66.8427 -291.108,93.8562 -29.1803,4.5767 -95.919,15.757 -165.919,16.757 l -154.9643,9.2343 c 0.2281,60.1937 -2.1517,137.3406 -3.2752,205.0477 -2.399,144.5719 10.7782,258.9707 -69.3147,312.5489 -21.8568,20.3555 -42.1946,29.7735 -79.4808,34.0785 -38.5734,4.4537 -84.6243,2.8693 -139.7759,3.5126 -91.2297,1.064 -179.607,24.2192 -252.9358,-67.6631 -20.1597,-26.9683 -31.8832,-49.5018 -32.6713,-102.5789 -4.1981,-149.0039 -6.5837,-420.8976 -4.7842,-607.104 1.4608,-151.1509 -1.7588,-663.202 8.7942,-907.9434 3.6264,-57.269 10.5221,-62.3992 57.136,-108.3655 z m 817.5862,698.5908 c 23.8343,-13.4543 49.5218,-30.4513 61.0548,-69.9957 10.3311,-35.4234 9.8416,-82.5695 -22.7099,-111.3422 -29.6334,-21.2548 -55.903,-35.5691 -86.3193,-42.077 -30.4163,-6.508 -68.6996,-7.535 -133.5216,-9.1908 l -121.7996,-4.1387 c 0.1701,198.1027 -1.2331,88.1744 -0.3522,285.3647 l 115.783,-6.6037 c 47.5221,-4.476 71.211,-5.1642 99.8026,-9.4381 27.3434,-4.0872 51.1574,-14.6907 88.0622,-32.5785 z" style="display:inline;opacity:1;fill:#29379b;fill-opacity:1"/>
    <path sodipodi:nodetypes="sccccczcccczcczcccccccczccs" inkscape:connector-curvature="0" id="path1550" d="m 4168.2988,4503.6702 c 30.9032,-44.6543 52.2254,-46.2784 126.0047,-53.3737 l 1195.1049,-4.02 c 0,0 68.1864,5.1959 105.5503,30.8619 42.6253,32.2426 45.9524,95.1047 45.9524,95.1047 l 1.1851,255.1585 c 0,0 10.9129,38.8181 -34.774,75.8912 -45.6869,37.073 -130.6371,30.3397 -130.6371,30.3397 l -769.0807,6.6214 1.0317,87.4827 681.5164,8.1511 c 65.9846,10.8861 98.768,-2.0112 144.4163,39.1554 45.6484,41.1666 49.8903,76.3629 50.0614,116.1975 l -0.723,222.179 c -1.6677,33.2102 -29.5898,61.2956 -51.8893,79.928 -22.2994,18.6324 -34.7469,37.6011 -124.0278,40.5313 l -703.366,5.1064 -0.7044,232.9587 744.1748,0.9961 c 115.857,5.5582 154.3483,8.1633 193.3502,83.1601 13.5995,75.8844 33.34,272.1334 -23.3927,353.9648 -31.5695,27.088 -49.845,57.3627 -146.7304,55.6431 l -1200.0113,-0.2167 c -61.2608,-16.1085 -85.119,-37.8617 -102.8656,-57.6261 -17.7466,-19.7644 -30.4484,-44.1343 -32.9107,-71.6557 l -2.5555,-1502.6533 c -0.6276,-85.459 28.067,-119.4053 35.3203,-129.8861 z" style="display:inline;opacity:1;fill:#29379b;fill-opacity:1;stroke:none;stroke-opacity:1"/>
    <path sodipodi:nodetypes="cccccccccccccccccccccccccccc" inkscape:connector-curvature="0" id="path1560" d="m 5669.8731,4490.1016 c 45.3416,-41.6583 56.712,-39.274 135.5365,-43.7291 l 286.5647,-2.6262 c 70.5703,4.2366 94.7752,6.8291 134.7641,22.246 60.93,41.4535 75.8235,91.4567 113.7352,137.1851 l 423.8638,646.4381 1.8966,-551.1743 c 4.2712,-39.6484 -9.5942,-167.6543 51.8767,-212.8831 43.7521,-37.0736 83.3188,-37.409 106.1441,-38.2095 l 226.045,-1.8013 c 67.7189,5.9884 82.8883,15.2321 119.4496,40.7521 49.4441,36.8039 39.8282,78.2582 43.6985,196.444 l 4.9724,1316.7288 c -3.7656,150.911 -0.2969,178.1808 -54.7028,229.7843 -39.6166,25.2102 -52.9267,35.2942 -126.7418,38.1438 l -234.017,0.8637 c -42.7418,-3.1089 -68.3843,-6.8755 -106.5225,-19.1917 -47.8268,-31.0179 -48.3017,-39.0175 -115.8585,-141.0632 l -493.4613,-745.0538 -1.9038,531.8909 c -0.9844,183.214 10.5165,261.4346 -57.0264,331.1219 -48.8523,28.9407 -74.6862,37.4939 -129.4574,41.4433 l -189.5817,0.024 c -52.7348,0.2353 -93.5478,-6.6316 -137.5267,-45.084 -43.8083,-38.65 -55.994,-81.9504 -58.8789,-143.8524 l -5.2595,-1339.2783 c 2.1954,-133.2639 7.1811,-183.7507 62.3911,-249.1187 z" style="display:inline;opacity:1;fill:#29379b;fill-opacity:1"/>
    <path style="display:inline;opacity:1;fill:#29379b;fill-opacity:1;stroke:none;stroke-width:10px;stroke-linecap:butt;stroke-linejoin:miter;stroke-opacity:1" d="m 7549.6455,6234.8547 c -16.3412,-13.2684 -12.2947,-45.2803 -17.1267,-147.3336 l -2.2414,-1769.1169 c -2.0631,-65.9408 -1.3055,-70.9779 24.1073,-90.5627 16.7162,-11.8477 59.739,-11.1997 90.9239,-12.1959 l 266.269,-0.5201 c 22.0549,0.6678 36.4366,2.4983 57.7939,11.0719 9.3355,3.7566 13.5555,18.209 51.7234,95.6744 l 401.44,881.2097 375.885,-867.4328 c 30.6689,-74.7405 32.0403,-87.6308 61.3141,-115.4023 21.0357,-13.3439 35.0959,-10.4114 103.5657,-9.339 l 197.3287,0.9424 c 39.5414,1.5967 73.5024,2.7285 102.8129,11.5334 31.3157,15.5036 24.8118,46.9373 30.8946,189.9937 l 3.5927,1736.7155 c -2.7949,52.8371 -2.6302,71.1467 -15.9477,85.5103 -21.4914,20.5378 -47.2576,22.661 -81.2447,22.8111 l -175.0073,0.9341 c -25.4853,-0.3175 -45.7093,2.9822 -69.5504,-12.7904 -16.896,-19.2134 -20.3098,-33.8232 -20.1065,-84.2758 l -11.2155,-1348.9939 -375.8727,841.1819 c -27.1335,46.1512 -32.8929,57.775 -42.9271,60.5203 -15.1292,9.8262 -30.9161,14.7198 -65.1176,14.681 l -73.5879,-0.2527 c -47.63,-3.8412 -57.4441,-6.0382 -68.9025,-14.483 -18.5769,-27.2629 -34.1943,-53.5392 -49.8117,-89.6806 l -360.4897,-788.2498 -11.3223,1317.6155 c -1.2866,29.5604 0.057,64.3821 -11.7517,81.7757 -17.0243,19.0088 -40.6253,23.8779 -85.6003,22.4991 l -157.1044,-1.1781 c -40.3539,-0.6057 -48.1533,-0.5538 -72.7231,-22.8624 z" id="path1570" inkscape:connector-curvature="0" sodipodi:nodetypes="cccccccccccccccccccccccccccccccccc"/>
    <path style="opacity:1;fill:#29379b;fill-opacity:1;stroke:none;stroke-width:10px;stroke-linecap:butt;stroke-linejoin:miter;stroke-opacity:1" d="m 10826.72,4325.3677 c 13.237,25.0505 10.689,54.7047 14.061,106.7196 l -1.312,191.4469 c -2.853,54.5232 -14.255,70.9017 -46.045,90.5686 -27.102,13.5809 -57.492,-3.0908 -79.333,-20.4202 -197.153,-140.4652 -416.009,-217.7945 -628.946,-164.906 -261.693,101.0205 -225.7609,271.7969 -150.7654,392.349 123.4204,103.4113 221.9404,100.9956 459.2134,159.9091 291.366,72.3441 364.01,150.8503 448.581,287.9127 84.571,137.0623 83.51,348.6194 42.733,463.5452 -40.778,114.9257 -94.528,259.1093 -275.862,358.1428 -181.334,99.0335 -395.691,123.5859 -566.043,100.4083 -170.3515,-23.1776 -489.788,-100.5552 -547.7363,-173.1548 -13.768,-80.2439 -10.7946,-203.2715 -9.2163,-286.7707 4.1496,-61.8672 -8.9264,-92.4641 43.3108,-114.248 40.2622,-17.1669 92.6155,26.5863 142.6436,71.2696 145.3686,104.8036 301.4332,161.7082 424.9452,163.273 203.38,17.9029 327.406,-10.6113 406.241,-148.3318 52.804,-92.2446 29.091,-261.3094 -130.009,-339.263 -253.64,-71.3091 -452.0368,-105.1314 -580.063,-173.1522 -180.8632,-114.0932 -302.5366,-234.7632 -290.0462,-567.2014 28.6557,-195.3652 111.256,-349.8068 391.9632,-489.3672 130.961,-59.5479 328.908,-61.7465 501.052,-43.6419 172.143,18.1047 393.85,95.8606 430.633,134.9124 z" id="path1588" inkscape:connector-curvature="0" sodipodi:nodetypes="cccccccszzzzcccccscccczc"/>
  </g>
  <g inkscape:groupmode="layer" id="layer2" inkscape:label="white" style="display:inline;opacity:1">
    <path style="fill:#ffffff;fill-opacity:1;stroke:none;stroke-width:1" inkscape:connector-curvature="0" d="m 1509,6140 c -100,-16 -243,-70 -316,-120 -97,-66 -211,-196 -262,-298 -35,-71 -83,-218 -99,-300 -19,-104 -17,-478 4,-581 19,-96 54,-197 102,-291 149,-296 460,-451 830,-414 421,42 684,327 746,806 12,89 12,310 0,395 -57,420 -259,685 -595,780 -64,18 -110,23 -230,25 -82,2 -163,1 -180,-2 z m 296,-234 c 203,-44 352,-212 420,-474 20,-79 23,-114 23,-290 0,-187 -1,-207 -27,-304 -61,-227 -175,-377 -335,-440 -121,-48 -333,-48 -442,0 -195,86 -306,262 -352,559 -14,95 -4,380 17,465 19,78 51,167 74,205 95,159 193,240 336,276 63,16 218,17 286,3 z" id="path391-2"/>
    <path style="display:inline;opacity:1;fill:#ffffff;fill-opacity:1" d="m 2819.4774,4597.5044 302.2073,4.5766 c 217.0127,-0.3183 473.9251,-4.3551 573.919,43.3153 140.5688,49.325 162.5313,80.027 233,129.1081 36.4243,39.7931 64.4576,81.9121 80.2613,119.8109 28.054,67.3694 32.081,108.2073 30.081,173.3154 -4,124 -58.4234,247.8649 -176.6577,334.8919 -53,43 -129.432,71.6934 -188.7116,99.3154 -77.2858,23.9229 -168.5263,43.8244 -305.5767,47.162 -18,-2 -86.054,0.6307 -156.054,1.6307 l -132.6037,2 C 3080.0465,5738.42 3080,5924.2098 3080,6110 c -86.623,0.2515 -173.2435,-0.2353 -259.865,-0.6577 3.1657,-503.9496 1.0721,-1007.8896 -0.6576,-1511.8379 z m 615.3876,765.9189 c 83.3277,-18.2879 167.7186,-28.2752 248.8737,-96.7656 56.5252,-63.1076 100.545,-152.6734 83.3153,-244.3424 -19.3182,-106.0918 -81.2693,-168.1614 -169.136,-202.7656 -87.8667,-34.6041 -200.3337,-35.8239 -324.6297,-37.973 l -189.7386,0.6576 c -4.0153,197.1726 -2.8539,394.3411 -1.973,591.5314 l 161.8196,2.6036 c 84.4774,-2.6576 189.4687,-9.946 191.4687,-12.946 z" id="path557" inkscape:connector-curvature="0" sodipodi:nodetypes="cccccccccccccccccsccccc"/>
    <path style="display:inline;opacity:1;fill:#ffffff;fill-opacity:1;stroke:none;stroke-opacity:1" d="m 4288.1398,4600.6992 1212.3828,0.093 -1.3153,177.0994 -954.2073,6.3153 3.9816,402.6394 881.0184,6.5766 3.946,186.2614 -893.946,5.8379 3.946,538.9548 960.8833,6.5766 -1.885,180.2613 -1214.8045,-10.6161 z" id="path561" inkscape:connector-curvature="0" sodipodi:nodetypes="ccccccccccccc"/>
    <path style="display:inline;opacity:1;fill:#ffffff;fill-opacity:1" d="m 5776.2797,4600.6992 375.3496,-1.091 L 6914,5778 6919.4894,4598.5627 7161.8602,4598.374 7160,6110 6873.5767,6110.7435 6034.784,4842.622 6023.1533,6109.3423 5780,6110 Z" id="path563" inkscape:connector-curvature="0" sodipodi:nodetypes="ccccccccccc"/>
  </g>
<script xmlns=""/></svg>
